<svg width="37" height="37" viewBox="0 0 37 37" fill="none" xmlns="http://www.w3.org/2000/svg">
<path d="M27.9457 34.259C26.9338 34.8678 25.4992 35.6006 23.6813 36.1389C22.6243 36.4518 20.7838 36.8915 18.4473 36.8915C14.6845 36.8915 11.1867 35.7669 8.26956 33.8306L3.04401 33.8221L3.03555 28.5825C1.11614 25.6737 0 22.19 0 18.447C0 15.0113 0.941388 11.7981 2.57613 9.04443C3.42451 9.58277 4.31235 10.1239 5.23682 10.6623C6.31632 11.2908 7.37045 11.8714 8.39921 12.4098C7.33663 14.1713 6.72218 16.2373 6.72218 18.447C6.72218 20.5327 7.26616 22.4916 8.22164 24.1884C8.1089 25.5807 7.99898 26.9731 7.88624 28.3626C9.23631 28.3091 10.5864 28.2527 11.9365 28.1963C13.7995 29.4421 16.0374 30.1665 18.4473 30.1665C20.1835 30.1665 21.5335 29.7832 22.2579 29.5323C23.2388 29.1941 24.0167 28.7798 24.5719 28.4387C25.0708 29.3857 25.6035 30.3581 26.1785 31.3531C26.7675 32.3706 27.3566 33.3373 27.9457 34.259Z" fill="#3856F2"/>
<path d="M18.4466 0C14.8868 0 11.5666 1.01185 8.74805 2.75652C9.37658 3.63026 10.0079 4.53219 10.6421 5.46794C11.2988 6.43751 11.9245 7.393 12.5221 8.33156C14.2611 7.31126 16.2848 6.72219 18.4494 6.72219C24.9208 6.72219 30.1717 11.9703 30.1717 18.4473C30.1717 20.6062 29.5854 22.6271 28.5651 24.3662C29.4445 24.9778 30.3521 25.5922 31.285 26.2095C32.2658 26.8577 33.2326 27.4778 34.1881 28.0725C35.9074 25.2709 36.8967 21.9761 36.8967 18.4473C36.8967 8.25828 28.6384 0 18.4494 0H18.4466Z" fill="#796AF5"/>
<path d="M10.6105 14.2699C12.2988 11.629 14.8975 9.92659 17.7358 9.30934C17.2538 7.11652 16.7606 4.92653 16.0672 2.77881C11.6308 3.80757 7.57498 6.49926 4.9312 10.6397C3.83761 12.3505 3.07661 14.1769 2.61719 16.0428C4.66626 16.6854 7.10428 17.0941 9.14208 17.7424C9.42675 16.5417 9.91154 15.3692 10.6134 14.2699H10.6105Z" fill="#36B8FD"/>
<path d="M8.08323 10.7641C9.54335 10.7641 10.727 9.58046 10.727 8.12034C10.727 6.66022 9.54335 5.47656 8.08323 5.47656C6.62311 5.47656 5.43945 6.66022 5.43945 8.12034C5.43945 9.58046 6.62311 10.7641 8.08323 10.7641Z" fill="#FFC926"/>
<path d="M15.0871 24.4194C16.5473 24.4194 17.7309 23.2357 17.7309 21.7756C17.7309 20.3155 16.5473 19.1318 15.0871 19.1318C13.627 19.1318 12.4434 20.3155 12.4434 21.7756C12.4434 23.2357 13.627 24.4194 15.0871 24.4194Z" fill="#3856F2"/>
<path d="M22.3918 17.1171C23.8519 17.1171 25.0356 15.9335 25.0356 14.4734C25.0356 13.0132 23.8519 11.8296 22.3918 11.8296C20.9317 11.8296 19.748 13.0132 19.748 14.4734C19.748 15.9335 20.9317 17.1171 22.3918 17.1171Z" fill="#796AF5"/>
<path d="M26.1799 22.3396C24.4916 24.9806 21.8929 26.683 19.0547 27.3002C19.5367 29.493 20.0299 31.683 20.7233 33.8307C25.1596 32.802 29.2155 30.1103 31.8593 25.9699C32.9529 24.259 33.7139 22.4326 34.1733 20.5668C32.1242 19.9241 29.6862 19.5154 27.6484 18.8672C27.3637 20.0679 26.8789 21.2404 26.1771 22.3396H26.1799Z" fill="#36B8FD"/>
<path d="M28.7043 31.1367C30.1644 31.1367 31.3481 29.953 31.3481 28.4929C31.3481 27.0328 30.1644 25.8491 28.7043 25.8491C27.2442 25.8491 26.0605 27.0328 26.0605 28.4929C26.0605 29.953 27.2442 31.1367 28.7043 31.1367Z" fill="#FFC926"/>
</svg>
